<svg xmlns="http://www.w3.org/2000/svg" width="16" height="16" viewBox="0 0 16 16">
  <g id="icon_16px" data-name="icon@16px" transform="translate(16 16) rotate(180)">
    <rect id="base" width="16" height="16" fill="none"/>
    <path id="icon" d="M4.148-6.066a.657.657,0,0,0,0-.993L-.665-11.215a.657.657,0,0,0-1.085.5v2.263c-3.532.28-6.125,1.428-6.125,5.019A5.59,5.59,0,0,0-5.6.778.487.487,0,0,0-4.829.269C-5.882-3.1-4.721-4.366-1.75-4.708v2.3a.657.657,0,0,0,1.085.5Zm3.5-.993L2.835-11.215a.657.657,0,0,0-1.085.5v.433L4.72-7.721a1.74,1.74,0,0,1,.53,1.158h0A1.741,1.741,0,0,1,4.72-5.4L1.75-2.839v.433a.657.657,0,0,0,1.085.5L7.648-6.066A.657.657,0,0,0,7.648-7.059Z" transform="translate(8 13)" fill="#000000"/>
  </g>
</svg>
